<svg width="1284" height="404" viewBox="0 0 1284 404" fill="none" xmlns="http://www.w3.org/2000/svg">
<rect x="82" y="242" width="320" height="40" stroke="#0A2834" stroke-width="4"/>
<path d="M402 42H722V162H402V147C403.5 147 407 146 407 142C407 138 403.5 137 402 137V42Z" stroke="#0A2834" stroke-width="4"/>
<rect x="82" y="42" width="160" height="100" stroke="#0A2834" stroke-width="4"/>
<rect x="82" y="182" width="160" height="60" stroke="#0A2834" stroke-width="4"/>
<rect x="2" y="2" width="80" height="280" stroke="#0A2834" stroke-width="4"/>
<rect x="1202" y="2" width="80" height="240" stroke="#0A2834" stroke-width="4"/>
<rect x="242" y="242" width="160" height="160" stroke="#0A2834" stroke-width="4"/>
<rect x="242" y="42" width="160" height="80" stroke="#0A2834" stroke-width="4"/>
<path d="M557 142H407" stroke="#0A2834" stroke-width="4"/>
<rect x="562" y="2" width="160" height="120" stroke="#0A2834" stroke-width="4"/>
<rect x="962" y="242" width="160" height="160" stroke="#0A2834" stroke-width="4"/>
<rect width="160" height="160" transform="matrix(-1 0 0 1 1282 242)" stroke="#0A2834" stroke-width="4"/>
<path d="M562 42V2H882V232L762 352V372L882 252V312L802 392V402H812L882 332V402H402V242H322V202H402V147C403.5 147 407 146 407 142C407 138 403.5 137 402 137V42H562Z" stroke="#0A2834" stroke-width="4"/>
<rect x="242" y="362" width="80" height="40" stroke="#0A2834" stroke-width="4"/>
<path d="M282 362H242L282 322H402V362H282Z" stroke="#0A2834" stroke-width="4"/>
<path d="M1227 392H1237V372H1232L1222 342H1142V392H1152C1152 388 1155 382 1162 382C1169 382 1172 388 1172 392H1207C1207 388 1210 382 1217 382C1224 382 1227 388 1227 392Z" stroke="#0A2834" stroke-width="4"/>
<rect width="240" height="40" transform="matrix(-1 0 0 1 242 362)" stroke="#0A2834" stroke-width="4"/>
<rect x="322" y="362" width="80" height="40" stroke="#0A2834" stroke-width="4"/>
<rect x="322" y="322" width="80" height="40" stroke="#0A2834" stroke-width="4"/>
<rect width="240" height="160" transform="matrix(-1 0 0 1 242 242)" stroke="#0A2834" stroke-width="4"/>
<rect x="882" y="362" width="40" height="40" stroke="#0A2834" stroke-width="4"/>
<rect x="922" y="362" width="40" height="40" stroke="#0A2834" stroke-width="4"/>
<path d="M247 162H262V152V142H277" stroke="#0A2834" stroke-width="4"/>
<path d="M247 162H262V192V222H277" stroke="#0A2834" stroke-width="4"/>
<path d="M407 142H462V102V62H517" stroke="#0A2834" stroke-width="4"/>
<path d="M447 222H490V232V242H538" stroke="#0A2834" stroke-width="4"/>
<path d="M322 202H442V217C440.5 217 437 218 437 222C437 226 440.5 227 442 227V242H322V202Z" stroke="#0A2834" stroke-width="4"/>
<path d="M322 202H282V217C283.5 217 287 218 287 222C287 226 283.5 227 282 227V242H322V202Z" stroke="#0A2834" stroke-width="4"/>
<path d="M322 122H282V137C283.5 137 287 138 287 142C287 146 283.5 147 282 147V162H322V122Z" stroke="#0A2834" stroke-width="4"/>
<path d="M322 122H402V137C400.5 137 397 138 397 142C397 146 400.5 147 402 147V162H322V122Z" stroke="#0A2834" stroke-width="4"/>
<path d="M82 142H242V157C240.5 157 237 158 237 162C237 166 240.5 167 242 167V182H82V142Z" stroke="#0A2834" stroke-width="4"/>
<path d="M722 122H562V137C563.5 137 567 138 567 142C567 146 563.5 147 562 147V162H722V122Z" stroke="#0A2834" stroke-width="4"/>
<path d="M682 42H522V57C523.5 57 527 58 527 62C527 66 523.5 67 522 67V82H682V42Z" stroke="#0A2834" stroke-width="4"/>
<rect x="82" y="2" width="480" height="40" stroke="#0A2834" stroke-width="4"/>
<rect x="42" y="142" width="40" height="40" stroke="#0A2834" stroke-width="4"/>
<rect x="277" y="137" width="10" height="10" rx="5" stroke="#0A2834" stroke-width="4"/>
<rect x="237" y="157" width="10" height="10" rx="5" stroke="#0A2834" stroke-width="4"/>
<rect x="397" y="137" width="10" height="10" rx="5" stroke="#0A2834" stroke-width="4"/>
<rect x="437" y="217" width="10" height="10" rx="5" stroke="#0A2834" stroke-width="4"/>
<rect x="277" y="217" width="10" height="10" rx="5" stroke="#0A2834" stroke-width="4"/>
<rect x="152" y="342" width="20" height="20" rx="10" stroke="#0A2834" stroke-width="4"/>
<rect x="52" y="152" width="20" height="20" rx="10" stroke="#0A2834" stroke-width="4"/>
<rect x="52" y="342" width="20" height="20" rx="10" stroke="#0A2834" stroke-width="4"/>
<rect x="517" y="57" width="10" height="10" rx="5" stroke="#0A2834" stroke-width="4"/>
<rect x="1002" y="362" width="40" height="40" stroke="#0A2834" stroke-width="4"/>
<rect width="20" height="10" transform="matrix(1 0 0 -1 1052 362)" stroke="#0A2834" stroke-width="4"/>
<rect width="20" height="10" transform="matrix(1 0 0 -1 1012 352)" stroke="#0A2834" stroke-width="4"/>
<rect width="20" height="10" transform="matrix(1 0 0 -1 1052 352)" stroke="#0A2834" stroke-width="4"/>
<rect width="20" height="30" transform="matrix(1 0 0 -1 1012 362)" stroke="#0A2834" stroke-width="4"/>
<rect width="20" height="10" transform="matrix(1 0 0 -1 972 362)" stroke="#0A2834" stroke-width="4"/>
<path d="M882 212H912V242H922V202H882V212Z" stroke="#0A2834" stroke-width="4"/>
<path d="M922 252H952V282H962V242H922V252Z" stroke="#0A2834" stroke-width="4"/>
<path d="M842 172H872V202H882V162H842V172Z" stroke="#0A2834" stroke-width="4"/>
<rect width="20" height="10" transform="matrix(1 0 0 -1 1052 342)" stroke="#0A2834" stroke-width="4"/>
<rect width="20" height="10" transform="matrix(1 0 0 -1 1052 332)" stroke="#0A2834" stroke-width="4"/>
<rect x="1082" y="362" width="40" height="40" stroke="#0A2834" stroke-width="4"/>
<rect x="1082" y="382" width="40" height="20" stroke="#0A2834" stroke-width="4"/>
<rect x="962" y="362" width="40" height="40" stroke="#0A2834" stroke-width="4"/>
<rect x="1122" y="242" width="40" height="40" stroke="#0A2834" stroke-width="4"/>
<rect x="1162" y="242" width="40" height="40" stroke="#0A2834" stroke-width="4"/>
<rect x="1202" y="242" width="40" height="40" stroke="#0A2834" stroke-width="4"/>
<rect x="1242" y="242" width="40" height="40" stroke="#0A2834" stroke-width="4"/>
<rect x="1042" y="362" width="40" height="40" stroke="#0A2834" stroke-width="4"/>
<path d="M1214 357H1227L1230 367H1214V357Z" stroke="#0A2834" stroke-width="4"/>
<rect x="1132" y="387" width="10" height="5" stroke="#0A2834" stroke-width="4"/>
<path d="M539 242C539 240.343 540.343 239 542 239H545V245H542C540.343 245 539 243.657 539 242V242Z" stroke="#0A2834" stroke-width="4"/>
<rect x="551" y="239" width="6" height="6" stroke="#0A2834" stroke-width="4"/>
<path d="M569 242C569 243.657 567.657 245 566 245L563 245L563 239L566 239C567.657 239 569 240.343 569 242V242Z" stroke="#0A2834" stroke-width="4"/>
<path d="M94 22C94 17.5817 97.5817 14 102 14H110V30H102C97.5817 30 94 26.4183 94 22V22Z" stroke="#0A2834" stroke-width="4"/>
<rect x="122" y="14" width="16" height="16" stroke="#0A2834" stroke-width="4"/>
<path d="M166 22C166 26.4183 162.418 30 158 30L150 30L150 14L158 14C162.418 14 166 17.5817 166 22V22Z" stroke="#0A2834" stroke-width="4"/>
<path d="M762 272L862 172" stroke="#0A2834" stroke-width="4"/>
<path d="M762 292L872 182" stroke="#0A2834" stroke-width="4"/>
<path d="M202 402L242 362" stroke="#0A2834" stroke-width="4"/>
<path d="M182 402L222 362" stroke="#0A2834" stroke-width="4"/>
<path d="M162 402L202 362" stroke="#0A2834" stroke-width="4"/>
<path d="M142 402L182 362" stroke="#0A2834" stroke-width="4"/>
<path d="M122 402L162 362" stroke="#0A2834" stroke-width="4"/>
<path d="M102 402L142 362" stroke="#0A2834" stroke-width="4"/>
<path d="M82 402L122 362" stroke="#0A2834" stroke-width="4"/>
<path d="M62 402L102 362" stroke="#0A2834" stroke-width="4"/>
<path d="M42 402L82 362" stroke="#0A2834" stroke-width="4"/>
<path d="M22 402L62 362" stroke="#0A2834" stroke-width="4"/>
<path d="M2 402L42 362" stroke="#0A2834" stroke-width="4"/>
<path d="M2 382L22 362" stroke="#0A2834" stroke-width="4"/>
<path d="M222 402L242 382" stroke="#0A2834" stroke-width="4"/>
<rect x="1207" y="382" width="20" height="20" rx="10" stroke="#0A2834" stroke-width="4"/>
<rect x="1152" y="382" width="20" height="20" rx="10" stroke="#0A2834" stroke-width="4"/>
<path d="M1122 282L1162 242" stroke="#0A2834" stroke-width="4"/>
<path d="M1162 282L1202 242" stroke="#0A2834" stroke-width="4"/>
<path d="M1202 282L1242 242" stroke="#0A2834" stroke-width="4"/>
<path d="M1242 282L1282 242" stroke="#0A2834" stroke-width="4"/>
<rect x="482" y="382" width="320" height="20" stroke="#0A2834" stroke-width="4"/>
<rect x="522" y="222" width="240" height="160" stroke="#0A2834" stroke-width="4"/>
<rect x="532" y="232" width="220" height="150" stroke="#0A2834" stroke-width="4"/>
<rect x="532" y="252" width="10" height="130" stroke="#0A2834" stroke-width="4"/>
<rect x="542" y="252" width="210" height="130" stroke="#0A2834" stroke-width="4"/>
<path fill-rule="evenodd" clip-rule="evenodd" d="M752 252H542V382H752V252ZM552 266C552 263.791 553.791 262 556 262H668C670.209 262 672 263.791 672 266C672 268.209 670.209 270 668 270H556C553.791 270 552 268.209 552 266ZM552 284C552 281.791 553.791 280 556 280H628C630.209 280 632 281.791 632 284C632 286.209 630.209 288 628 288H556C553.791 288 552 286.209 552 284ZM556 316C553.791 316 552 317.791 552 320C552 322.209 553.791 324 556 324H628C630.209 324 632 322.209 632 320C632 317.791 630.209 316 628 316H556ZM552 338C552 335.791 553.791 334 556 334H628C630.209 334 632 335.791 632 338C632 340.209 630.209 342 628 342H556C553.791 342 552 340.209 552 338ZM556 352C553.791 352 552 353.791 552 356C552 358.209 553.791 360 556 360H668C670.209 360 672 358.209 672 356C672 353.791 670.209 352 668 352H556ZM552 302C552 299.791 553.791 298 556 298H708C710.209 298 712 299.791 712 302C712 304.209 710.209 306 708 306H556C553.791 306 552 304.209 552 302Z" fill="#0A2834"/>
<rect x="532" y="232" width="220" height="20" stroke="#0A2834" stroke-width="4"/>
<rect x="722" y="2" width="160" height="160" stroke="#0A2834" stroke-width="4"/>
<path d="M1142 102H1162C1173.05 102 1182 110.954 1182 122V122C1182 133.046 1173.05 142 1162 142H1142V102Z" stroke="#0A2834" stroke-width="4"/>
<path d="M882 2H1202V242H892L912 222V212H882V2Z" stroke="#0A2834" stroke-width="4"/>
<rect x="1002" y="122" width="40" height="40" stroke="#0A2834" stroke-width="4"/>
<path d="M1042 82V82C1064.09 82 1082 99.9086 1082 122V162H1042V82Z" stroke="#0A2834" stroke-width="4"/>
<path d="M922 122C922 99.9086 939.909 82 962 82V82V82C962 104.091 979.909 122 1002 122V122V162H962C939.909 162 922 144.091 922 122V122Z" stroke="#0A2834" stroke-width="4"/>
<path d="M962 82C962 59.9086 979.909 42 1002 42V42C1024.09 42 1042 59.9086 1042 82V122H1002C979.909 122 962 104.091 962 82V82Z" stroke="#0A2834" stroke-width="4"/>
<path d="M1082 122H1102C1113.05 122 1122 130.954 1122 142V142C1122 153.046 1113.05 162 1102 162H1082V122Z" stroke="#0A2834" stroke-width="4"/>
<rect x="557" y="137" width="10" height="10" rx="5" stroke="#0A2834" stroke-width="4"/>
<path d="M952 262L812 402H802V392L942 252H952V262Z" stroke="#0A2834" stroke-width="4"/>
<path d="M912 222L772 362L762 372V352L902 212H912V222Z" stroke="#0A2834" stroke-width="4"/>
<path d="M1142 102V142H1122C1122 131 1113 122 1102 122C1091 122 1082 122 1082 122C1082 103.5 1070 93 1064.34 88.5C1069.87 73.0512 1084.65 62 1102 62C1124.09 62 1142 79.9086 1142 102Z" stroke="#0A2834" stroke-width="4"/>
</svg>
