<?xml version="1.0" encoding="utf-8"?>
<!-- Generator: Adobe Illustrator 21.1.0, SVG Export Plug-In . SVG Version: 6.00 Build 0)  -->
<svg version="1.1" id="Layer_1" xmlns="http://www.w3.org/2000/svg" xmlns:xlink="http://www.w3.org/1999/xlink" x="0px" y="0px"
	 viewBox="324 231 145 153" xml:space="preserve">
<style type="text/css">
	.st0{fill:#002934;}
</style>
<g>
	<path class="st0" d="M468.8,339.1c-0.1-0.5-0.2-0.9-0.4-1.3c0-0.1-0.1-0.1-0.1-0.2c-0.2-0.4-0.5-0.8-0.8-1.1c0,0,0-0.1-0.1-0.1
		c-0.3-0.3-0.7-0.6-1.2-0.8c0,0-0.1-0.1-0.1-0.1l-58.2-28.7c-1.5-0.7-3.2-0.6-4.6,0.2c-1.4,0.9-2.2,2.4-2.2,4l0,24h-3.3l-66.3-32.7
		c-1.5-0.7-3.2-0.6-4.6,0.2c-1.4,0.9-2.2,2.4-2.2,4v48.4c0,2,1.3,3.8,3.2,4.5l67.3,22.1l0,0c0.5,0.2,1,0.2,1.5,0.2
		c0.5,0,1-0.1,1.5-0.2l0,0l67.3-22.1c1.9-0.6,3.2-2.4,3.2-4.5v-15.1c0-0.1,0-0.2,0-0.4C468.8,339.3,468.8,339.2,468.8,339.1z
		 M410.7,318.6L444,335h-33.3L410.7,318.6z M334.2,314.1l57.9,28.6v27.8l-57.9-19V314.1z M459.4,351.5l-57.9,19v-26.1h4.4h53.5
		V351.5z"/>
	<path class="st0" d="M465.6,254.5l-67.3-22.1c-0.1,0-0.2,0-0.4-0.1c-0.2,0-0.4-0.1-0.5-0.1c-0.2,0-0.4,0-0.6,0c-0.2,0-0.4,0-0.6,0
		c-0.2,0-0.4,0.1-0.5,0.1c-0.1,0-0.3,0-0.4,0.1l-67.3,22.1c-1.9,0.6-3.2,2.4-3.2,4.5v15.1c0,0.1,0,0.2,0,0.4c0,0.1,0,0.2,0,0.3
		c0.1,0.5,0.2,0.9,0.4,1.3c0,0.1,0.1,0.1,0.1,0.2c0.2,0.4,0.5,0.8,0.8,1.1c0,0,0,0.1,0.1,0.1c0.3,0.3,0.7,0.6,1.2,0.8
		c0,0,0.1,0.1,0.1,0.1l58.2,28.7c0.7,0.3,1.4,0.5,2.1,0.5c0.9,0,1.7-0.2,2.5-0.7c1.4-0.9,2.2-2.4,2.2-4l0-24h3.3l66.3,32.7
		c0.7,0.3,1.4,0.5,2.1,0.5c0.9,0,1.7-0.2,2.5-0.7c1.4-0.9,2.2-2.4,2.2-4V259C468.8,257,467.5,255.2,465.6,254.5z M334.2,262.4
		l57.9-19v26.1h-4.4h-53.5V262.4z M383,295.3l-33.3-16.4H383L383,295.3z M459.4,299.8l-57.9-28.6v-27.8l57.9,19V299.8z"/>
</g>
</svg>
