<?xml version="1.0" encoding="utf-8"?>
<!-- Generator: Adobe Illustrator 21.1.0, SVG Export Plug-In . SVG Version: 6.00 Build 0)  -->
<svg version="1.1" id="Layer_1" xmlns="http://www.w3.org/2000/svg" xmlns:xlink="http://www.w3.org/1999/xlink" x="0px" y="0px"
	 viewBox="324 231 145 153" xml:space="preserve">
<style type="text/css">
	.st0{fill:#80CBB4;}
</style>
<g>
	<path class="st0" d="M468.8,339c-0.1-0.5-0.2-0.9-0.4-1.3c0-0.1-0.1-0.1-0.1-0.2c-0.2-0.4-0.5-0.8-0.8-1.1c0,0,0-0.1-0.1-0.1
		c-0.3-0.3-0.7-0.6-1.2-0.8c0,0-0.1-0.1-0.1-0.1l-58.2-28.7c-1.5-0.7-3.2-0.6-4.6,0.2c-1.4,0.9-2.2,2.4-2.2,4l0,24H398l-66.3-32.7
		c-1.5-0.7-3.2-0.6-4.6,0.2c-1.4,0.9-2.2,2.4-2.2,4v48.4c0,2,1.3,3.8,3.2,4.5l67.3,22.1c0,0,0,0,0,0c0.5,0.2,1,0.2,1.5,0.2
		c0.5,0,1-0.1,1.5-0.2c0,0,0,0,0,0l67.3-22.1c1.9-0.6,3.2-2.4,3.2-4.5v-15.1c0-0.1,0-0.2,0-0.4C468.8,339.2,468.8,339.1,468.8,339z
		 M410.7,318.5l33.3,16.4h-33.3L410.7,318.5z M334.3,314l57.9,28.6v27.8l-57.9-19V314z M459.5,351.4l-57.9,19v-26.1h4.4h53.5V351.4z
		"/>
	<path class="st0" d="M465.6,254.5l-67.3-22.1c-0.1,0-0.2,0-0.4-0.1c-0.2,0-0.4-0.1-0.5-0.1c-0.2,0-0.4,0-0.6,0c-0.2,0-0.4,0-0.6,0
		c-0.2,0-0.4,0.1-0.5,0.1c-0.1,0-0.3,0-0.4,0.1l-67.3,22.1c-1.9,0.6-3.2,2.4-3.2,4.5v15.1c0,0.1,0,0.2,0,0.4c0,0.1,0,0.2,0,0.3
		c0.1,0.5,0.2,0.9,0.4,1.3c0,0.1,0.1,0.1,0.1,0.2c0.2,0.4,0.5,0.8,0.8,1.1c0,0,0,0.1,0.1,0.1c0.3,0.3,0.7,0.6,1.2,0.8
		c0,0,0.1,0.1,0.1,0.1l58.2,28.7c0.7,0.3,1.4,0.5,2.1,0.5c0.9,0,1.7-0.2,2.5-0.7c1.4-0.9,2.2-2.4,2.2-4l0-24h3.3l66.3,32.7
		c0.7,0.3,1.4,0.5,2.1,0.5c0.9,0,1.7-0.2,2.5-0.7c1.4-0.9,2.2-2.4,2.2-4v-48.4C468.9,256.9,467.6,255.1,465.6,254.5z M334.3,262.3
		l57.9-19v26.1h-4.4h-53.5V262.3z M383,295.2l-33.3-16.4H383L383,295.2z M459.5,299.7l-57.9-28.6v-27.8l57.9,19V299.7z"/>
</g>
</svg>
